<svg width="20" height="22" viewBox="0 0 20 22" fill="none" xmlns="http://www.w3.org/2000/svg">
<path d="M17 14.0351H16.25C16.25 14.3029 16.3927 14.5503 16.6245 14.6843L17 14.0351ZM19 17.5V18.25C19.4142 18.25 19.75 17.9142 19.75 17.5H19ZM13 17.5V16.75C12.5858 16.75 12.25 17.0858 12.25 17.5H13ZM7 17.5H7.75C7.75 17.0858 7.41421 16.75 7 16.75V17.5ZM1 17.5H0.25C0.25 17.9142 0.585786 18.25 1 18.25L1 17.5ZM3 14.0351L3.37554 14.6843C3.60729 14.5503 3.75 14.3029 3.75 14.0351H3ZM10 0.75C5.71979 0.75 2.25 4.21979 2.25 8.5H3.75C3.75 5.04822 6.54822 2.25 10 2.25V0.75ZM17.75 8.5C17.75 4.21979 14.2802 0.75 10 0.75V2.25C13.4518 2.25 16.25 5.04822 16.25 8.5H17.75ZM17.75 14.0351V8.5H16.25V14.0351H17.75ZM19.75 17.5C19.75 15.7409 18.7934 14.2061 17.3755 13.3859L16.6245 14.6843C17.5978 15.2474 18.25 16.298 18.25 17.5H19.75ZM17 18.25H19V16.75H17V18.25ZM13 18.25H17V16.75H13V18.25ZM12.25 17.5C12.25 18.7426 11.2426 19.75 10 19.75V21.25C12.0711 21.25 13.75 19.5711 13.75 17.5H12.25ZM10 19.75C8.75736 19.75 7.75 18.7426 7.75 17.5H6.25C6.25 19.5711 7.92893 21.25 10 21.25V19.75ZM3 18.25H7V16.75H3V18.25ZM1 18.25H3V16.75H1V18.25ZM2.62446 13.3859C1.20663 14.2061 0.25 15.7409 0.25 17.5H1.75C1.75 16.298 2.40216 15.2474 3.37554 14.6843L2.62446 13.3859ZM2.25 8.5V14.0351H3.75V8.5H2.25Z" fill="#384252"/>
</svg>
