<svg width="14" height="15" viewBox="0 0 14 15" fill="none" xmlns="http://www.w3.org/2000/svg">
<path fill-rule="evenodd" clip-rule="evenodd" d="M12.4697 14.0303C12.7626 14.3232 13.2374 14.3232 13.5303 14.0303C13.8232 13.7374 13.8232 13.2626 13.5303 12.9697L8.06066 7.5L13.5303 2.03033C13.8232 1.73744 13.8232 1.26256 13.5303 0.96967C13.2374 0.676777 12.7626 0.676777 12.4697 0.96967L7 6.43934L1.53033 0.96967C1.23744 0.676777 0.762564 0.676777 0.46967 0.96967C0.176777 1.26256 0.176777 1.73744 0.46967 2.03033L5.93934 7.5L0.46967 12.9697C0.176777 13.2626 0.176777 13.7374 0.46967 14.0303C0.762563 14.3232 1.23744 14.3232 1.53033 14.0303L7 8.56066L12.4697 14.0303Z" fill="#384252"/>
</svg>
