<svg width="40" height="41" viewBox="0 0 40 41" fill="none" xmlns="http://www.w3.org/2000/svg">
<path d="M20.9689 11.8559L21.4533 11.2834V11.2834L20.9689 11.8559ZM19.031 11.8559L18.5466 11.2834V11.2834L19.031 11.8559ZM28.916 18.5804L29.4004 18.0078V18.0078L28.916 18.5804ZM21.8021 29.4995H21.0521C21.0521 29.9137 21.3878 30.2495 21.8021 30.2495V29.4995ZM18.35 29.4995V30.2495C18.7642 30.2495 19.1 29.9137 19.1 29.4995H18.35ZM11.084 18.5804L10.5995 18.0078H10.5995L11.084 18.5804ZM21.4533 11.2834C20.6144 10.5735 19.3855 10.5735 18.5466 11.2834L19.5155 12.4284C19.7951 12.1918 20.2048 12.1918 20.4844 12.4284L21.4533 11.2834ZM29.4004 18.0078L21.4533 11.2834L20.4844 12.4284L28.4315 19.1529L29.4004 18.0078ZM28.27 21.0937C29.9002 21.0937 30.6449 19.0609 29.4004 18.0078L28.4315 19.1529C28.6093 19.3033 28.5029 19.5937 28.27 19.5937V21.0937ZM28.75 20.6138C28.75 20.8788 28.5351 21.0937 28.27 21.0937V19.5937C27.7067 19.5937 27.25 20.0504 27.25 20.6138H28.75ZM28.75 28.9995V20.6138H27.25V28.9995H28.75ZM27.5 30.2495C28.1904 30.2495 28.75 29.6899 28.75 28.9995H27.25C27.25 28.8614 27.3619 28.7495 27.5 28.7495V30.2495ZM21.8021 30.2495H27.5V28.7495H21.8021V30.2495ZM21.0521 24.8442V29.4995H22.5521V24.8442H21.0521ZM20.076 23.8682C20.6151 23.8682 21.0521 24.3051 21.0521 24.8442H22.5521C22.5521 23.4767 21.4435 22.3682 20.076 22.3682V23.8682ZM19.1 24.8442C19.1 24.3051 19.537 23.8682 20.076 23.8682V22.3682C18.7086 22.3682 17.6 23.4767 17.6 24.8442H19.1ZM19.1 29.4995V24.8442H17.6V29.4995H19.1ZM12.5 30.2495H18.35V28.7495H12.5V30.2495ZM11.25 28.9995C11.25 29.6899 11.8096 30.2495 12.5 30.2495V28.7495C12.6381 28.7495 12.75 28.8614 12.75 28.9995H11.25ZM11.25 20.6138V28.9995H12.75V20.6138H11.25ZM11.7299 21.0937C11.4649 21.0937 11.25 20.8789 11.25 20.6138H12.75C12.75 20.0505 12.2933 19.5937 11.7299 19.5937V21.0937ZM10.5995 18.0078C9.35501 19.0608 10.0997 21.0937 11.7299 21.0937V19.5937C11.497 19.5937 11.3906 19.3033 11.5684 19.1529L10.5995 18.0078ZM18.5466 11.2834L10.5995 18.0078L11.5684 19.1529L19.5155 12.4284L18.5466 11.2834Z" fill="#384252"/>
</svg>
