<svg width="18" height="18" viewBox="0 0 18 18" fill="none" xmlns="http://www.w3.org/2000/svg" color="red">
<path fill-rule="evenodd" clip-rule="evenodd" d="M17.171 9.74974C17.5852 9.74974 17.921 9.41395 17.921 8.99974C17.921 8.58553 17.5852 8.24974 17.171 8.24974L9.75 8.24974L9.75001 0.828793C9.75001 0.41458 9.41422 0.0787935 9.00001 0.0787933C8.58579 0.0787931 8.25001 0.41458 8.25001 0.828793L8.25001 8.24974L0.828984 8.24974C0.41477 8.24974 0.0789838 8.58553 0.0789837 8.99974C0.0789836 9.41395 0.41477 9.74974 0.828984 9.74974L8.25 9.74974L8.25 17.1708C8.25 17.585 8.58579 17.9208 9 17.9208C9.41422 17.9208 9.75 17.585 9.75 17.1708L9.75 9.74974L17.171 9.74974Z" fill="#000"/>
</svg>
