<svg width="19" height="19" viewBox="0 0 19 19" fill="none" xmlns="http://www.w3.org/2000/svg">
<path id="Union" fill-rule="evenodd" clip-rule="evenodd" d="M11.5528 3.22061C13.8536 5.52149 13.8536 9.25195 11.5528 11.5528C9.25187 13.8537 5.52141 13.8537 3.22053 11.5528C0.919656 9.25195 0.919656 5.52149 3.22053 3.22061C5.52141 0.919732 9.25187 0.919732 11.5528 3.22061ZM13.1169 12.0569C15.489 9.15352 15.3212 4.86769 12.6134 2.15995C9.72675 -0.726715 5.04654 -0.726715 2.15987 2.15995C-0.72679 5.04661 -0.72679 9.72682 2.15987 12.6135C4.86742 15.321 9.15284 15.489 12.0562 13.1175L17.3099 18.3711L18.3705 17.3105L13.1169 12.0569Z" fill="#A8B3C4"/>
</svg>
