<svg width="18" height="18" viewBox="0 0 18 18" fill="none" xmlns="http://www.w3.org/2000/svg">
<path id="Star 3" d="M8.09194 1.96866C8.44936 1.19379 9.55064 1.19379 9.90806 1.96866L11.5869 5.60843C11.7326 5.92423 12.0319 6.14168 12.3772 6.18262L16.3576 6.65457C17.205 6.75504 17.5454 7.80243 16.9189 8.38179L13.976 11.1032C13.7207 11.3394 13.6064 11.6912 13.6742 12.0323L14.4553 15.9637C14.6216 16.8007 13.7307 17.448 12.9861 17.0312L9.48844 15.0734C9.18497 14.9035 8.81503 14.9035 8.51156 15.0734L5.01393 17.0312C4.26932 17.448 3.37836 16.8007 3.54467 15.9637L4.32584 12.0323C4.39362 11.6912 4.2793 11.3394 4.02396 11.1032L1.08114 8.38179C0.454641 7.80242 0.794958 6.75504 1.64235 6.65457L5.62277 6.18262C5.96813 6.14168 6.26742 5.92423 6.41308 5.60843L8.09194 1.96866Z" fill="#F1F3F6" stroke="#384252" stroke-width="1.5"/>
</svg>
