<svg width="375" height="835" viewBox="0 0 375 835" fill="none" xmlns="http://www.w3.org/2000/svg">
<rect width="375" height="57" fill="url(#paint0_linear_384_1446)"/>
<path d="M172 17L187 28L202 17" stroke="url(#paint1_linear_384_1446)" stroke-width="3" stroke-linecap="round" stroke-linejoin="round"/>
<path d="M172 28L187 39L202 28" stroke="url(#paint2_linear_384_1446)" stroke-width="3" stroke-linecap="round" stroke-linejoin="round"/>
<rect width="375" height="778" transform="translate(0 57)" fill="#384252"/>
<rect x="107.5" y="97.5" width="160" height="23" rx="11.5" stroke="white"/>
<path d="M119.41 111.596H123.586V109.148H124.906V111.596H129.082V112.676H119.41V111.596ZM120.214 104.156H128.254V105.212H124.918C124.954 106.748 126.514 108.152 128.698 108.488L128.182 109.532C126.382 109.196 124.93 108.248 124.246 106.916C123.562 108.26 122.122 109.232 120.346 109.58L119.818 108.536C121.966 108.188 123.514 106.748 123.55 105.212H120.214V104.156ZM137.206 103.28H138.526V111.116H137.206V107.54H135.19V106.46H137.206V103.28ZM135.25 104.096C135.25 106.928 133.414 109.028 130.33 110.024L129.778 108.968C132.094 108.224 133.594 106.856 133.834 105.152H130.342V104.096H135.25ZM131.626 110.336H132.958V112.7H138.79V113.756H131.626V110.336ZM140.279 104.192H145.295V109.28H140.279V104.192ZM143.999 105.236H141.575V108.212H143.999V105.236ZM146.951 103.28H148.271V106.424H149.747V107.516H148.271V111.08H146.951V103.28ZM141.479 110.324H142.799V112.7H148.691V113.756H141.479V110.324ZM153.268 103.988H158.908V105.044H156.76V105.092C156.76 105.956 157.648 106.76 159.244 107.024L158.704 108.02C157.48 107.804 156.592 107.252 156.112 106.508C155.62 107.312 154.696 107.912 153.388 108.152L152.872 107.156C154.54 106.856 155.428 106.004 155.428 105.092V105.044H153.268V103.988ZM160.288 103.28H161.608V113.972H160.288V111.584H158.044V110.564H160.288V103.28ZM152.632 108.884C154.576 108.884 157.24 108.86 159.544 108.524L159.616 109.484C158.656 109.664 157.66 109.772 156.688 109.844V113.648H155.368V109.916C154.444 109.952 153.568 109.952 152.788 109.952L152.632 108.884ZM163.913 111.788C164.345 111.788 164.645 112.1 164.645 112.532C164.645 112.976 164.345 113.288 163.913 113.288C163.469 113.288 163.157 112.976 163.157 112.532C163.157 112.1 163.469 111.788 163.913 111.788ZM167.013 111.788C167.445 111.788 167.745 112.1 167.745 112.532C167.745 112.976 167.445 113.288 167.013 113.288C166.569 113.288 166.257 112.976 166.257 112.532C166.257 112.1 166.569 111.788 167.013 111.788ZM169.128 111.596H173.304V109.148H174.624V111.596H178.8V112.676H169.128V111.596ZM169.932 104.156H177.972V105.212H174.636C174.672 106.748 176.232 108.152 178.416 108.488L177.9 109.532C176.1 109.196 174.648 108.248 173.964 106.916C173.28 108.26 171.84 109.232 170.064 109.58L169.536 108.536C171.684 108.188 173.232 106.748 173.268 105.212H169.932V104.156ZM181.861 104.156H183.169V105.836C183.169 107.732 184.093 109.688 185.737 110.492L184.933 111.536C183.793 110.948 182.977 109.832 182.521 108.476C182.053 109.928 181.189 111.128 179.977 111.74L179.185 110.672C180.889 109.856 181.861 107.804 181.861 105.836V104.156ZM186.349 103.292H187.681V107.48H189.313V108.584H187.681V113.972H186.349V103.292ZM190.861 103.664H192.169V106.292H198.205V107.348H190.861V103.664ZM189.625 108.584H199.297V109.64H189.625V108.584ZM190.777 110.564H192.085V112.664H198.265V113.732H190.777V110.564ZM202.399 109.316H212.071V110.384H207.859V113.972H206.539V110.384H202.399V109.316ZM207.199 103.688C209.467 103.688 211.015 104.6 211.015 106.052C211.015 107.504 209.467 108.428 207.199 108.428C204.943 108.428 203.395 107.504 203.395 106.052C203.395 104.6 204.943 103.688 207.199 103.688ZM207.199 104.732C205.711 104.732 204.751 105.224 204.751 106.052C204.751 106.892 205.711 107.384 207.199 107.384C208.699 107.384 209.671 106.892 209.671 106.052C209.671 105.224 208.699 104.732 207.199 104.732ZM220.159 103.268H221.479V113.984H220.159V103.268ZM213.211 104.228H218.215V108.236H214.567V110.372C216.235 110.36 217.675 110.288 219.319 110.012L219.451 111.08C217.639 111.392 216.055 111.452 214.159 111.452H213.235V107.18H216.883V105.284H213.211V104.228ZM229.867 103.268H231.199V107.456H232.771V108.548H231.199V113.96H229.867V103.268ZM228.391 104.396C228.391 107.54 227.107 110.276 223.591 112.04L222.847 111.044C225.427 109.724 226.807 107.9 227.059 105.464H223.411V104.396H228.391ZM242.701 103.268H244.021V105.656H245.509V106.736H244.021V109.076H242.701V103.268ZM237.085 109.556H244.021V112.136H238.405V112.892H244.369V113.876H237.109V111.224H242.725V110.528H237.085V109.556ZM235.681 104.132H238.165V103.184H239.485V104.132H241.969V105.14H235.681V104.132ZM238.825 105.476C240.385 105.476 241.429 106.148 241.429 107.228C241.429 108.308 240.385 108.968 238.825 108.968C237.253 108.968 236.233 108.308 236.233 107.228C236.233 106.148 237.253 105.476 238.825 105.476ZM238.825 106.424C238.009 106.424 237.493 106.7 237.493 107.228C237.493 107.744 238.009 108.032 238.825 108.032C239.641 108.032 240.157 107.744 240.157 107.228C240.157 106.7 239.641 106.424 238.825 106.424ZM253.802 103.28H255.062V113.96H253.802V103.28ZM251.558 103.532H252.794V113.456H251.558V108.536H249.686C249.074 109.76 248.078 110.84 246.578 111.716L245.822 110.78C248.018 109.472 249.014 107.804 249.206 105.644H246.362V104.576H250.526C250.526 105.608 250.406 106.58 250.118 107.48H251.558V103.532Z" fill="white"/>
<path d="M110.788 137.7H113.448V151.34H110.788V149.94H107.428V148.14H110.788V137.7ZM100.428 150.04H102.928V147.64C101.368 147.72 99.8683 147.74 98.5283 147.74L98.2083 145.64C101.488 145.62 105.868 145.58 109.648 145.1L109.808 146.98C108.428 147.22 107.008 147.38 105.588 147.5V150.88H103.088V153.28H113.868V155.4H100.428V150.04ZM103.988 138.3C106.628 138.3 108.468 139.62 108.468 141.52C108.468 143.46 106.628 144.74 103.988 144.74C101.348 144.74 99.4883 143.46 99.4883 141.52C99.4883 139.62 101.348 138.3 103.988 138.3ZM103.988 140.24C102.828 140.24 102.028 140.66 102.028 141.52C102.028 142.38 102.828 142.8 103.988 142.8C105.168 142.8 105.948 142.38 105.948 141.52C105.948 140.66 105.168 140.24 103.988 140.24ZM126.849 137.72H129.509V144.7H132.069V146.9H129.509V155.72H126.849V137.72ZM115.269 140.34H119.189V138.02H121.889V140.34H125.769V142.46H115.269V140.34ZM120.549 143.44C123.189 143.44 125.129 145.22 125.129 147.74C125.129 150.26 123.189 152.04 120.549 152.04C117.929 152.04 115.969 150.26 115.969 147.74C115.969 145.22 117.929 143.44 120.549 143.44ZM120.549 145.6C119.349 145.6 118.529 146.38 118.529 147.74C118.529 149.1 119.349 149.88 120.549 149.88C121.729 149.88 122.569 149.1 122.569 147.74C122.569 146.38 121.729 145.6 120.549 145.6ZM134.449 138.34H137.089V142.52H146.949V144.62H134.449V138.34ZM132.449 146.46H148.749V148.56H132.449V146.46ZM134.269 149.96H136.929V153.2H147.049V155.34H134.269V149.96ZM153.739 151.48H160.559V147.52H163.219V151.48H170.039V153.64H153.739V151.48ZM155.099 139.04H168.639V141.16H163.279C163.539 143.44 165.579 145.56 169.479 146.14L168.439 148.24C165.279 147.68 163.019 146.18 161.879 144.12C160.759 146.22 158.539 147.76 155.399 148.34L154.359 146.22C158.159 145.64 160.199 143.44 160.459 141.16H155.099V139.04ZM183.22 137.7H185.9V150.84H183.22V145.06H180.2V142.9H183.22V137.7ZM180.34 139.04C180.34 143.92 177.36 147.48 172.1 149.14L171 147.02C174.72 145.86 177.04 143.74 177.46 141.16H171.96V139.04H180.34ZM174.06 149.54H176.74V153.28H186.34V155.4H174.06V149.54ZM196.04 137.96C200.14 137.96 202.58 139.04 202.58 141.02C202.58 143.02 200.14 144.1 196.04 144.1C191.92 144.1 189.5 143.02 189.5 141.02C189.5 139.04 191.92 137.96 196.04 137.96ZM196.04 139.9C193.46 139.9 192.26 140.26 192.26 141.02C192.26 141.82 193.46 142.16 196.04 142.16C198.6 142.16 199.8 141.82 199.8 141.02C199.8 140.26 198.6 139.9 196.04 139.9ZM187.9 144.9H204.16V147H187.9V144.9ZM189.74 147.96H202.2V152.64H192.38V153.6H202.68V155.6H189.78V150.8H199.58V149.94H189.74V147.96ZM216.49 144.5H218.47V137.98H220.95V154.9H218.47V146.64H216.49V144.5ZM209.51 140.7H212.25V138.28H214.79V140.7H217.51V142.84H214.79V143.16C214.79 145.86 215.69 148.58 218.23 149.94L216.79 151.92C215.23 151.1 214.19 149.72 213.55 148.04C212.95 149.88 211.91 151.44 210.31 152.36L208.81 150.36C211.39 148.84 212.25 145.9 212.25 143.16V142.84H209.51V140.7ZM222.11 137.7H224.65V155.7H222.11V137.7ZM228.09 139.24H240.95V141.32C240.95 143.94 240.95 146.44 240.09 150.38L237.47 150.14C237.81 148.68 238.01 147.36 238.13 146.16L227.89 146.68L227.57 144.54L238.27 144.2C238.31 143.22 238.31 142.28 238.31 141.38H228.09V139.24ZM226.27 151.42H242.55V153.62H226.27V151.42ZM254.831 137.72H257.491V144.7H260.051V146.9H257.491V155.72H254.831V137.72ZM243.251 140.34H247.171V138.02H249.871V140.34H253.751V142.46H243.251V140.34ZM248.531 143.44C251.171 143.44 253.111 145.22 253.111 147.74C253.111 150.26 251.171 152.04 248.531 152.04C245.911 152.04 243.951 150.26 243.951 147.74C243.951 145.22 245.911 143.44 248.531 143.44ZM248.531 145.6C247.331 145.6 246.511 146.38 246.511 147.74C246.511 149.1 247.331 149.88 248.531 149.88C249.711 149.88 250.551 149.1 250.551 147.74C250.551 146.38 249.711 145.6 248.531 145.6ZM262.091 139.2H275.191V140.92C275.191 143.16 275.191 145.7 274.491 149.56L271.811 149.28C272.471 145.92 272.511 143.42 272.511 141.34H262.091V139.2ZM260.431 151.4H266.151V145.24H268.811V151.4H276.711V153.56H260.431V151.4ZM90.268 166.92H98.808V175.28H90.268V166.92ZM96.188 169.02H92.888V173.2H96.188V169.02ZM101.268 165.7H103.928V170.14H106.288V172.32H103.928V177.56H101.268V165.7ZM96.868 176.76H99.508V177.2C99.508 179.1 101.208 181.06 105.088 181.58L104.088 183.66C101.248 183.22 99.268 182.02 98.188 180.4C97.108 182.02 95.128 183.22 92.288 183.66L91.268 181.58C95.168 181.06 96.868 179.1 96.868 177.2V176.76ZM107.569 166.66H117.349V168.74H113.869C114.029 170.58 115.309 172.42 118.049 173.2L116.749 175.26C114.729 174.68 113.329 173.48 112.529 171.94C111.729 173.6 110.289 174.94 108.169 175.56L106.849 173.48C109.689 172.68 110.969 170.72 111.109 168.74H107.569V166.66ZM119.109 165.72H121.769V175.48H119.109V165.72ZM109.789 176.24H112.409V177.82H119.149V176.24H121.769V183.52H109.789V176.24ZM112.409 179.88V181.38H119.149V179.88H112.409ZM128.118 179.46H134.918V176.2H129.818V166.82H132.458V169.56H140.018V166.82H142.658V176.2H137.578V179.46H144.418V181.62H128.118V179.46ZM132.458 171.64V174.1H140.018V171.64H132.458ZM146.859 167.2H159.959V168.92C159.959 171.16 159.959 173.7 159.259 177.56L156.579 177.28C157.239 173.92 157.279 171.42 157.279 169.34H146.859V167.2ZM145.199 179.4H150.919V173.24H153.579V179.4H161.479V181.56H145.199V179.4ZM171.339 171.3H174.739V165.68H177.379V183.74H174.739V173.44H171.339V171.3ZM166.399 167.06H169.079V169.64C169.079 173.04 170.299 176.34 173.319 177.68L171.739 179.8C169.779 178.86 168.499 177.14 167.739 175C166.979 177.26 165.639 179.1 163.639 180.1L161.979 177.96C165.079 176.54 166.399 173.06 166.399 169.64V167.06ZM179.36 173.76H195.66V175.68H179.36V173.76ZM181.18 176.54H193.72V180.84H183.84V181.78H194.22V183.58H181.2V179.18H191.1V178.34H181.18V176.54ZM181.36 166H193.68V170.3H184V171.16H194.02V172.98H181.38V168.62H191.06V167.8H181.36V166ZM212.17 165.72H214.83V169.76H217.19V171.96H214.83V176.2H212.17V165.72ZM201.17 166.74H203.81V168.98H207.21V166.74H209.83V175.34H201.17V166.74ZM203.81 171.02V173.24H207.21V171.02H203.81ZM203.11 176.98H214.95V179.08H205.77V181.38H215.29V183.5H203.11V176.98ZM222.55 166.92C225.29 166.92 227.29 169.42 227.29 173.36C227.29 177.34 225.29 179.84 222.55 179.84C219.81 179.84 217.81 177.34 217.81 173.36C217.81 169.42 219.81 166.92 222.55 166.92ZM222.55 169.36C221.25 169.36 220.37 170.74 220.37 173.36C220.37 176.02 221.25 177.42 222.55 177.42C223.87 177.42 224.75 176.02 224.75 173.36C224.75 170.74 223.87 169.36 222.55 169.36ZM229.19 165.72H231.87V172.46H234.43V174.66H231.87V183.72H229.19V165.72ZM234.811 179.46H241.611V176.2H236.511V166.82H239.151V169.56H246.711V166.82H249.351V176.2H244.271V179.46H251.111V181.62H234.811V179.46ZM239.151 171.64V174.1H246.711V171.64H239.151ZM258.971 171.72H261.151V165.98H263.631V182.9H261.151V173.88H258.971V171.72ZM255.071 167.26H257.651V170.12C257.651 173.06 258.371 176.04 260.831 177.68L259.371 179.74C257.891 178.82 256.951 177.34 256.371 175.56C255.771 177.52 254.711 179.16 253.131 180.14L251.511 178.14C254.171 176.52 255.071 173.3 255.071 170.24V167.26ZM264.811 165.7H267.351V183.7H264.811V165.7ZM268.971 179.46H272.511V175.08C271.171 174.22 270.371 172.96 270.371 171.4C270.371 168.44 273.231 166.54 277.111 166.54C280.991 166.54 283.851 168.44 283.851 171.4C283.851 172.96 283.051 174.22 281.711 175.08V179.46H285.271V181.62H268.971V179.46ZM277.111 168.62C274.631 168.62 272.991 169.64 272.991 171.4C272.991 173.16 274.631 174.18 277.111 174.18C279.571 174.18 281.211 173.16 281.211 171.4C281.211 169.64 279.571 168.62 277.111 168.62ZM275.191 179.46H279.031V176.08C278.431 176.18 277.791 176.24 277.111 176.24C276.431 176.24 275.791 176.18 275.191 176.08V179.46Z" fill="white"/>
<g filter="url(#filter0_d_384_1446)">
<rect x="16" y="221" width="343" height="471" rx="2" fill="white"/>
<path d="M127.66 251.76L135.32 244.1L136.8 245.62L130.68 251.76L136.8 257.9L135.32 259.4L127.66 251.76ZM143.305 244.08H151.565V252.18H143.305V244.08ZM149.385 245.82H145.465V250.46H149.385V245.82ZM154.425 242.8H156.625V247.4H159.085V249.2H156.625V254.58H154.425V242.8ZM149.985 253.76H152.165V254.24C152.165 256.4 154.325 258.32 157.865 258.84L157.025 260.56C154.265 260.1 152.145 258.82 151.085 257.04C150.005 258.82 147.885 260.1 145.125 260.56L144.265 258.84C147.825 258.32 149.985 256.4 149.985 254.24V253.76ZM160.465 243.86H170.165V245.58H166.445C166.465 247.66 168.005 249.7 170.765 250.52L169.685 252.22C167.645 251.62 166.185 250.32 165.365 248.68C164.585 250.46 163.085 251.86 160.965 252.52L159.865 250.8C162.705 249.96 164.185 247.8 164.205 245.58H160.465V243.86ZM172.245 242.82H174.445V252.46H172.245V242.82ZM162.765 253.26H164.925V255.08H172.285V253.26H174.445V260.4H162.765V253.26ZM164.925 256.78V258.62H172.285V256.78H164.925ZM181.055 256.66H184.755V252.12C183.355 251.3 182.515 250.04 182.515 248.46C182.515 245.6 185.295 243.76 189.095 243.76C192.915 243.76 195.675 245.6 195.675 248.46C195.675 250.04 194.835 251.3 193.455 252.12V256.66H197.175V258.44H181.055V256.66ZM189.095 245.48C186.475 245.48 184.675 246.62 184.675 248.46C184.675 250.32 186.475 251.44 189.095 251.44C191.715 251.44 193.515 250.32 193.515 248.46C193.515 246.62 191.715 245.48 189.095 245.48ZM186.955 256.66H191.255V252.94C190.595 253.08 189.855 253.16 189.095 253.16C188.335 253.16 187.615 253.08 186.955 252.94V256.66ZM198.595 244.76H202.295V242.74H204.475V244.76H208.135V246.5H204.475V246.58C204.475 248.58 205.955 250.48 208.735 251.24L207.735 252.94C205.715 252.38 204.235 251.2 203.435 249.66C202.655 251.38 201.175 252.74 199.095 253.38L198.055 251.66C200.835 250.84 202.295 248.74 202.295 246.58V246.5H198.595V244.76ZM207.635 247.68H210.715V242.82H212.915V253.56H210.715V249.46H207.635V247.68ZM206.955 253.94C210.675 253.94 212.975 255.16 212.975 257.26C212.975 259.36 210.675 260.6 206.955 260.6C203.215 260.6 200.915 259.36 200.915 257.26C200.915 255.16 203.215 253.94 206.955 253.94ZM206.955 255.62C204.475 255.62 203.115 256.2 203.115 257.26C203.115 258.34 204.475 258.92 206.955 258.92C209.415 258.92 210.795 258.34 210.795 257.26C210.795 256.2 209.415 255.62 206.955 255.62ZM224.136 248.56H227.836V242.78H230.016V260.64H227.836V250.34H224.136V248.56ZM219.516 244.24H221.716V247.06C221.716 250.36 223.256 253.62 226.076 254.9L224.776 256.66C222.796 255.68 221.396 253.8 220.616 251.5C219.836 253.94 218.396 255.94 216.396 256.96L215.036 255.2C217.896 253.84 219.516 250.4 219.516 247.06V244.24ZM246.366 251.76L238.726 259.4L237.226 257.9L243.366 251.76L237.226 245.62L238.726 244.1L246.366 251.76Z" fill="#8292AA"/>
<path d="M28 279H347" stroke="#E0E4EA" stroke-width="1.5"/>
<path d="M28 283H347" stroke="#E0E4EA" stroke-width="1.5"/>
<path d="M56.34 315.024H58.116V320.608H60.212V322.064H58.116V329.28H56.34V315.024ZM54.372 316.528C54.372 320.72 52.66 324.368 47.972 326.72L46.98 325.392C50.42 323.632 52.26 321.2 52.596 317.952H47.732V316.528H54.372ZM68.1964 315.968C68.1964 316.48 68.1484 316.976 68.0524 317.44H70.7724V315.04H72.5324V323.52H70.7724V321.872H67.4284V320.464H70.7724V318.832H67.6364C66.6764 321.04 64.5644 322.624 61.5404 323.44L60.8684 322.064C64.1324 321.2 66.0204 319.488 66.3244 317.376H61.6364V315.968H68.1964ZM62.9004 324.128H72.5324V329.248H70.7724V325.52H62.9004V324.128ZM84.8528 315.04H86.5328V329.28H84.8528V322.048H83.3008V328.576H81.6688V315.328H83.3008V320.608H84.8528V315.04ZM74.8208 316.736H80.0688V318.16H76.5488V324.512C78.0688 324.496 79.3488 324.4 80.7728 324.128L80.9328 325.568C79.2048 325.904 77.7328 325.968 75.7808 325.968H74.8208V316.736Z" fill="#272A2F"/>
<path d="M101.166 319.148V320.996L102.882 320.444L103.146 321.248L101.43 321.8L102.522 323.312L101.85 323.84L100.746 322.304L99.6417 323.84L98.9817 323.312L100.074 321.8L98.3457 321.248L98.6097 320.444L100.326 320.996V319.148H101.166ZM106.987 317.348V326H106.123V318.332L104.779 319.268L104.299 318.608L106.123 317.348H106.987ZM116.12 316.388H117.032V324.056H116.12V316.388ZM110.324 323.276H111.212V325.892H117.356V326.636H110.324V323.276ZM111.404 317.12C112.964 317.12 114.128 318.176 114.128 319.7C114.128 321.2 112.964 322.268 111.404 322.268C109.856 322.268 108.68 321.2 108.68 319.7C108.68 318.176 109.856 317.12 111.404 317.12ZM111.404 317.9C110.36 317.9 109.556 318.644 109.556 319.7C109.556 320.732 110.36 321.476 111.404 321.476C112.46 321.476 113.264 320.732 113.264 319.7C113.264 318.644 112.46 317.9 111.404 317.9ZM128.906 316.376H129.806V326.876H128.906V316.376ZM126.71 317.504C126.71 320.528 125.318 323.192 121.826 324.896L121.346 324.176C124.178 322.82 125.606 320.768 125.798 318.248H121.814V317.504H126.71ZM132.338 316.904H140.09V317.648H136.79V317.684C136.79 318.992 138.554 320.048 140.366 320.288L140.018 321.02C138.362 320.756 136.778 319.916 136.214 318.692C135.638 319.916 134.066 320.756 132.398 321.02L132.05 320.288C133.874 320.048 135.626 318.992 135.626 317.684V317.648H132.338V316.904ZM131.45 321.8H140.966V322.544H136.73V324.704H135.818V322.544H131.45V321.8ZM132.674 323.66H133.574V325.904H139.91V326.648H132.674V323.66Z" fill="#8292AA"/>
<rect x="38.5" y="346" width="94" height="48" rx="23" fill="#CBF7FF"/>
<rect x="38.5" y="346" width="94" height="48" rx="23" stroke="#46DCFA" stroke-width="2"/>
<path d="M64.62 364.416V376.048L62.924 376.032V366.224L60.876 367.36L60.172 365.936L62.94 364.416H64.62ZM66.9075 369.264H73.8835V370.96H66.9075V369.264ZM75.634 374.56C77.97 372.32 81.154 370.048 81.154 368.08C81.154 366.768 80.322 365.84 79.138 365.84C78.226 365.84 77.314 366.496 76.898 367.44L75.41 366.784C76.05 365.312 77.602 364.288 79.138 364.288C81.33 364.288 82.85 365.856 82.85 368.08C82.85 370.528 80.194 372.704 78.034 374.56H83.042V376.048H75.794L75.634 374.56ZM84.5488 364.256H91.2368V371.04H84.5488V364.256ZM89.5088 365.648H86.2768V369.616H89.5088V365.648ZM93.4448 363.04H95.2048V367.232H97.1728V368.688H95.2048V373.44H93.4448V363.04ZM86.1488 372.432H87.9088V375.6H95.7648V377.008H86.1488V372.432ZM107.797 363.04H109.557V373.856H107.797V372.592H105.045V371.376H107.797V363.04ZM99.5091 372.816H101.269V375.6H109.893V377.008H99.5091V372.816ZM97.6371 369.456C100.245 369.44 103.733 369.408 106.757 369.04L106.853 370.288C105.701 370.48 104.485 370.608 103.301 370.688V373.424H101.541V370.784C100.229 370.848 98.9651 370.864 97.8611 370.864L97.6371 369.456ZM102.229 363.568C104.325 363.568 105.765 364.576 105.765 366.08C105.765 367.616 104.325 368.608 102.229 368.608C100.149 368.608 98.6931 367.616 98.6931 366.08C98.6931 364.576 100.149 363.568 102.229 363.568ZM102.229 364.848C101.141 364.848 100.373 365.296 100.373 366.08C100.373 366.864 101.141 367.312 102.229 367.312C103.349 367.312 104.085 366.864 104.085 366.08C104.085 365.296 103.349 364.848 102.229 364.848Z" fill="#00B4E6"/>
<rect x="140.5" y="347" width="94" height="46" rx="23" fill="#F1F3F6"/>
<path d="M161.444 374.992C163.732 372.768 167.204 369.968 167.204 367.872C167.204 366.384 166.26 365.328 164.9 365.328C163.924 365.328 162.916 366.064 162.452 367.12L161.396 366.672C162.004 365.28 163.46 364.304 164.9 364.304C166.932 364.304 168.356 365.776 168.356 367.872C168.356 370.304 165.252 372.912 163.012 374.992H168.548V376.016H161.604L161.444 374.992ZM170.222 369.536H176.974V370.672H170.222V369.536ZM184.502 370.032C185.526 370.656 186.086 371.776 186.086 372.736C186.086 374.704 184.55 376.096 182.358 376.096C180.182 376.096 178.646 374.704 178.646 372.736H179.798C179.798 374.112 180.854 375.072 182.358 375.072C183.878 375.072 184.934 374.112 184.934 372.752C184.934 371.456 183.878 370.544 182.39 370.544H181.542V369.488H182.39C183.782 369.488 184.774 368.656 184.774 367.472C184.774 366.24 183.814 365.376 182.454 365.376C181.078 365.376 180.118 366.256 180.118 367.504H178.966C178.966 365.648 180.406 364.352 182.454 364.352C184.486 364.352 185.926 365.648 185.926 367.504C185.926 368.368 185.43 369.408 184.502 370.032ZM187.913 364.432H194.313V370.896H187.913V364.432ZM193.145 365.408H189.081V369.904H193.145V365.408ZM196.953 363.152H198.153V367.44H200.233V368.448H198.153V373.424H196.953V363.152ZM189.481 372.448H190.665V375.856H198.793V376.848H189.481V372.448ZM211.162 363.168H212.362V373.824H211.162V372.336H208.298V371.456H211.162V363.168ZM202.874 372.784H204.074V375.856H212.714V376.848H202.874V372.784ZM200.858 369.664C203.45 369.664 206.922 369.632 209.914 369.264L209.994 370.128C208.746 370.336 207.434 370.464 206.154 370.528V373.312H204.954V370.592C203.546 370.656 202.202 370.672 201.034 370.672L200.858 369.664ZM205.418 363.744C207.466 363.744 208.858 364.704 208.858 366.176C208.858 367.664 207.466 368.608 205.418 368.608C203.37 368.608 201.978 367.664 201.978 366.176C201.978 364.704 203.37 363.744 205.418 363.744ZM205.418 364.64C204.074 364.64 203.114 365.248 203.114 366.176C203.114 367.104 204.074 367.696 205.418 367.696C206.778 367.696 207.706 367.104 207.706 366.176C207.706 365.248 206.778 364.64 205.418 364.64Z" fill="#272A2F"/>
<rect x="242.5" y="347" width="94" height="46" rx="23" fill="#F1F3F6"/>
<path d="M272.236 370.032C273.26 370.656 273.82 371.776 273.82 372.736C273.82 374.704 272.284 376.096 270.092 376.096C267.916 376.096 266.38 374.704 266.38 372.736H267.532C267.532 374.112 268.588 375.072 270.092 375.072C271.612 375.072 272.668 374.112 272.668 372.752C272.668 371.456 271.612 370.544 270.124 370.544H269.276V369.488H270.124C271.516 369.488 272.508 368.656 272.508 367.472C272.508 366.24 271.548 365.376 270.188 365.376C268.812 365.376 267.852 366.256 267.852 367.504H266.7C266.7 365.648 268.14 364.352 270.188 364.352C272.22 364.352 273.66 365.648 273.66 367.504C273.66 368.368 273.164 369.408 272.236 370.032ZM275.647 364.432H282.047V370.896H275.647V364.432ZM280.879 365.408H276.815V369.904H280.879V365.408ZM284.687 363.152H285.887V367.44H287.967V368.448H285.887V373.424H284.687V363.152ZM277.215 372.448H278.399V375.856H286.527V376.848H277.215V372.448ZM298.896 363.168H300.096V373.824H298.896V372.336H296.032V371.456H298.896V363.168ZM290.608 372.784H291.808V375.856H300.448V376.848H290.608V372.784ZM288.592 369.664C291.184 369.664 294.656 369.632 297.648 369.264L297.728 370.128C296.48 370.336 295.168 370.464 293.888 370.528V373.312H292.688V370.592C291.28 370.656 289.936 370.672 288.768 370.672L288.592 369.664ZM293.152 363.744C295.2 363.744 296.592 364.704 296.592 366.176C296.592 367.664 295.2 368.608 293.152 368.608C291.104 368.608 289.712 367.664 289.712 366.176C289.712 364.704 291.104 363.744 293.152 363.744ZM293.152 364.64C291.808 364.64 290.848 365.248 290.848 366.176C290.848 367.104 291.808 367.696 293.152 367.696C294.512 367.696 295.44 367.104 295.44 366.176C295.44 365.248 294.512 364.64 293.152 364.64ZM303.024 370.16C303.456 369.104 304.512 368.384 305.584 368.432C306.032 368.464 306.656 368.672 307.072 368.944L308.416 369.776C308.72 369.968 309.104 370.096 309.328 370.112C309.904 370.128 310.464 369.744 310.688 369.168L311.808 369.584C311.408 370.624 310.352 371.344 309.264 371.296C308.864 371.28 308.256 371.072 307.808 370.8L306.432 369.936C306.16 369.776 305.792 369.632 305.52 369.616C304.944 369.6 304.368 370.016 304.112 370.608L303.024 370.16Z" fill="#272A2F"/>
<path d="M38.5 410L334.5 410" stroke="#E0E4EA" stroke-dasharray="6 6"/>
<path d="M47.476 443.448H55.46V444.904H52.356V446.088C52.356 448.44 53.732 450.888 55.988 451.848L55.012 453.24C53.364 452.504 52.148 451.016 51.492 449.208C50.852 451.16 49.62 452.808 47.956 453.592L46.948 452.2C49.204 451.16 50.58 448.52 50.58 446.088V444.904H47.476V443.448ZM57.012 442.056H58.772V456.296H57.012V442.056ZM62.9004 451.16H72.5324V456.296H70.7724V452.552H62.9004V451.16ZM70.7724 442.056H72.5324V450.456H70.7724V448.584H67.4764C66.7884 449.336 65.7804 449.784 64.6124 449.784C62.4844 449.784 60.8844 448.328 60.8844 446.296C60.8844 444.264 62.4844 442.824 64.6124 442.824C65.7804 442.824 66.8044 443.272 67.4764 444.024H70.7724V442.056ZM64.6124 444.312C63.4284 444.312 62.5484 445.096 62.5484 446.296C62.5484 447.528 63.4284 448.296 64.6124 448.296C65.7804 448.296 66.6444 447.528 66.6444 446.296C66.6444 445.096 65.7804 444.312 64.6124 444.312ZM68.2284 447.16H70.7724V445.448H68.2284C68.2924 445.72 68.3244 445.992 68.3244 446.296C68.3244 446.6 68.2924 446.888 68.2284 447.16Z" fill="#272A2F"/>
<rect x="38.5" y="474" width="94" height="46" rx="23" fill="#F1F3F6"/>
<path d="M50.272 490.808H59.664V491.784C59.664 492.84 59.664 494.12 59.296 495.8H61.328V496.792H55.552V499.016C58.208 499.128 59.792 500.056 59.792 501.576C59.792 503.208 57.968 504.136 54.944 504.136C51.936 504.136 50.112 503.208 50.112 501.576C50.112 500.056 51.712 499.128 54.368 499.016V496.792H48.64V495.8H58.112C58.496 494.088 58.496 492.84 58.496 491.784V491.768H50.272V490.808ZM54.944 499.976C52.688 499.976 51.312 500.552 51.312 501.576C51.312 502.6 52.688 503.176 54.944 503.176C57.216 503.176 58.592 502.6 58.592 501.576C58.592 500.552 57.216 499.976 54.944 499.976ZM62.3204 497.112H68.0324V495.464H63.9204V490.824H73.3764V491.8H65.1044V494.472H73.4724V495.464H69.2164V497.112H74.9604V498.088H62.3204V497.112ZM68.6244 499.128C71.6004 499.128 73.4084 500.04 73.4084 501.64C73.4084 503.256 71.6004 504.152 68.6244 504.152C65.6324 504.152 63.8404 503.256 63.8404 501.64C63.8404 500.04 65.6324 499.128 68.6244 499.128ZM68.6244 500.072C66.4004 500.072 65.0404 500.648 65.0404 501.64C65.0404 502.648 66.4004 503.208 68.6244 503.208C70.8484 503.208 72.1924 502.648 72.1924 501.64C72.1924 500.648 70.8484 500.072 68.6244 500.072ZM80.5608 490.776L77.2168 503.768H76.0648L79.4248 490.776H80.5608ZM81.93 497.224H87.658V495.672H83.626V490.536H84.81V492.12H91.722V490.536H92.922V495.672H88.842V497.224H94.57V498.2H81.93V497.224ZM88.25 499.256C91.226 499.256 93.018 500.152 93.018 501.704C93.018 503.272 91.226 504.136 88.25 504.136C85.258 504.136 83.466 503.272 83.466 501.704C83.466 500.152 85.258 499.256 88.25 499.256ZM88.25 500.2C86.01 500.2 84.682 500.744 84.682 501.704C84.682 502.648 86.01 503.224 88.25 503.224C90.474 503.224 91.818 502.648 91.818 501.704C91.818 500.744 90.474 500.2 88.25 500.2ZM84.81 493.064V494.712H91.722V493.064H84.81ZM105.882 490.168H107.082V498.456H105.882V496.216H102.602V497.432H96.2504V491.224H102.602V492.456H105.882V490.168ZM101.434 492.2H97.4184V496.472H101.434V492.2ZM102.49 498.872C105.37 498.872 107.146 499.848 107.146 501.512C107.146 503.192 105.37 504.136 102.49 504.136C99.6104 504.136 97.8344 503.192 97.8344 501.512C97.8344 499.848 99.6104 498.872 102.49 498.872ZM102.49 499.832C100.346 499.832 99.0344 500.456 99.0344 501.512C99.0344 502.552 100.346 503.192 102.49 503.192C104.634 503.192 105.946 502.552 105.946 501.512C105.946 500.456 104.634 499.832 102.49 499.832ZM102.602 495.24H105.882V493.448H102.602V495.24ZM109.275 497.112H114.987V495.464H110.875V490.824H120.331V491.8H112.059V494.472H120.427V495.464H116.171V497.112H121.915V498.088H109.275V497.112ZM115.579 499.128C118.555 499.128 120.363 500.04 120.363 501.64C120.363 503.256 118.555 504.152 115.579 504.152C112.587 504.152 110.795 503.256 110.795 501.64C110.795 500.04 112.587 499.128 115.579 499.128ZM115.579 500.072C113.355 500.072 111.995 500.648 111.995 501.64C111.995 502.648 113.355 503.208 115.579 503.208C117.803 503.208 119.147 502.648 119.147 501.64C119.147 500.648 117.803 500.072 115.579 500.072Z" fill="#272A2F"/>
<rect x="140.5" y="473" width="94" height="48" rx="23" fill="#CBF7FF"/>
<rect x="140.5" y="473" width="94" height="48" rx="23" stroke="#46DCFA" stroke-width="2"/>
<path d="M175.66 490.616H185.356V491.688C185.356 492.76 185.356 494.008 185.036 495.592H186.94V497H181.34V498.92C183.916 499.096 185.436 500.056 185.436 501.592C185.436 503.304 183.564 504.28 180.46 504.28C177.388 504.28 175.5 503.304 175.5 501.592C175.5 500.04 177.036 499.096 179.596 498.92V497H174.044V495.592H183.292C183.612 494.12 183.644 493.016 183.644 492.008H175.66V490.616ZM180.46 500.296C178.396 500.296 177.26 500.728 177.26 501.592C177.26 502.456 178.396 502.888 180.46 502.888C182.54 502.888 183.676 502.456 183.676 501.592C183.676 500.728 182.54 500.296 180.46 500.296ZM187.724 496.872H193.276V495.528H189.308V490.68H199.02V492.088H191.036V494.12H199.116V495.528H195.02V496.872H200.588V498.28H187.724V496.872ZM194.124 499.112C197.18 499.112 199.036 500.04 199.036 501.704C199.036 503.368 197.18 504.296 194.124 504.296C191.052 504.296 189.196 503.368 189.196 501.704C189.196 500.04 191.052 499.112 194.124 499.112ZM194.124 500.456C192.092 500.456 190.972 500.888 190.972 501.704C190.972 502.552 192.092 502.952 194.124 502.952C196.156 502.952 197.26 502.552 197.26 501.704C197.26 500.888 196.156 500.456 194.124 500.456Z" fill="#00B4E6"/>
<rect x="242.5" y="474" width="94" height="46" rx="23" fill="#F1F3F6"/>
<path d="M269.14 497.224H274.868V495.672H270.836V490.536H272.02V492.12H278.932V490.536H280.132V495.672H276.052V497.224H281.78V498.2H269.14V497.224ZM275.46 499.256C278.436 499.256 280.228 500.152 280.228 501.704C280.228 503.272 278.436 504.136 275.46 504.136C272.468 504.136 270.676 503.272 270.676 501.704C270.676 500.152 272.468 499.256 275.46 499.256ZM275.46 500.2C273.22 500.2 271.892 500.744 271.892 501.704C271.892 502.648 273.22 503.224 275.46 503.224C277.684 503.224 279.028 502.648 279.028 501.704C279.028 500.744 277.684 500.2 275.46 500.2ZM272.02 493.064V494.712H278.932V493.064H272.02ZM293.092 490.168H294.292V498.456H293.092V496.216H289.812V497.432H283.46V491.224H289.812V492.456H293.092V490.168ZM288.644 492.2H284.628V496.472H288.644V492.2ZM289.7 498.872C292.58 498.872 294.356 499.848 294.356 501.512C294.356 503.192 292.58 504.136 289.7 504.136C286.82 504.136 285.044 503.192 285.044 501.512C285.044 499.848 286.82 498.872 289.7 498.872ZM289.7 499.832C287.556 499.832 286.244 500.456 286.244 501.512C286.244 502.552 287.556 503.192 289.7 503.192C291.844 503.192 293.156 502.552 293.156 501.512C293.156 500.456 291.844 499.832 289.7 499.832ZM289.812 495.24H293.092V493.448H289.812V495.24ZM296.485 497.112H302.197V495.464H298.085V490.824H307.541V491.8H299.269V494.472H307.637V495.464H303.381V497.112H309.125V498.088H296.485V497.112ZM302.789 499.128C305.765 499.128 307.573 500.04 307.573 501.64C307.573 503.256 305.765 504.152 302.789 504.152C299.797 504.152 298.005 503.256 298.005 501.64C298.005 500.04 299.797 499.128 302.789 499.128ZM302.789 500.072C300.565 500.072 299.205 500.648 299.205 501.64C299.205 502.648 300.565 503.208 302.789 503.208C305.013 503.208 306.357 502.648 306.357 501.64C306.357 500.648 305.013 500.072 302.789 500.072Z" fill="#272A2F"/>
<path d="M38.5 537L334.5 537" stroke="#E0E4EA" stroke-dasharray="6 6"/>
<path d="M54.388 570.448C54.388 574.752 53.22 578.448 48.004 581.088L47.06 579.744C49.508 578.512 50.964 577.088 51.78 575.392L47.396 575.824L47.172 574.304L52.308 573.984C52.484 573.312 52.596 572.608 52.66 571.856H47.908V570.448H54.388ZM56.34 569.024H58.116V574.608H60.212V576.064H58.116V583.28H56.34V569.024ZM66.5324 574.304H68.2924V569.328H69.9404V582.624H68.2924V575.728H66.5324V574.304ZM61.1564 570.672H66.4364V572.064H62.8204V574.528H65.8604V575.872H62.8204V578.64C64.4844 578.624 65.6684 578.56 67.0444 578.304L67.1884 579.712C65.5724 580.016 64.2284 580.048 62.1164 580.048H61.1564V570.672ZM71.2044 569.04H72.8844V583.28H71.2044V569.04ZM75.7008 570.336H85.8928V571.712C85.8928 573.488 85.8928 575.472 85.3648 578.448L83.5888 578.256C84.1328 575.488 84.1328 573.456 84.1328 571.76H75.7008V570.336ZM74.3728 580.016H79.1088V575.056H80.8528V580.016H87.2528V581.456H74.3728V580.016ZM98.0531 569.024H99.8131V583.312H98.0531V569.024ZM88.7891 570.304H95.4611V575.648H90.5971V578.496C92.8211 578.48 94.7411 578.384 96.9331 578.016L97.1091 579.44C94.6931 579.856 92.5811 579.936 90.0531 579.936H88.8211V574.24H93.6851V571.712H88.7891V570.304Z" fill="#272A2F"/>
<rect x="38.5" y="600" width="94" height="48" rx="23" fill="#CBF7FF"/>
<rect x="38.5" y="600" width="94" height="48" rx="23" stroke="#46DCFA" stroke-width="2"/>
<path d="M58.5 617.712H60.276V619.072C60.276 620.96 61.46 622.72 63.684 623.44L62.836 624.816C61.204 624.272 60.052 623.184 59.412 621.808C58.788 623.296 57.588 624.496 55.908 625.072L55.028 623.664C57.332 622.896 58.5 621.008 58.5 619.072V617.712ZM57.156 626.224H66.788V631.296H65.028V627.648H57.156V626.224ZM65.028 617.056H66.788V625.568H65.028V617.056ZM78.1164 617.04H79.8924V620.544H81.8284V622H79.8924V625.36H78.1164V617.04ZM75.2524 625.632C78.1644 625.632 80.0204 626.688 80.0204 628.464C80.0204 630.24 78.1644 631.28 75.2524 631.28C72.3404 631.28 70.4844 630.24 70.4844 628.464C70.4844 626.688 72.3404 625.632 75.2524 625.632ZM75.2524 627.04C73.3324 627.04 72.2124 627.52 72.2124 628.464C72.2124 629.376 73.3324 629.872 75.2524 629.872C77.1724 629.872 78.2924 629.376 78.2924 628.464C78.2924 627.52 77.1724 627.04 75.2524 627.04ZM69.2684 618.048H75.6044V619.472H71.0124V623.056C73.7004 623.04 75.1724 622.944 76.8524 622.608L77.0444 624C75.2044 624.384 73.5404 624.464 70.4204 624.464H69.2684V618.048ZM87.6848 617.632L84.2768 630.912H82.5648L85.9888 617.632H87.6848ZM96.303 618.448C96.303 622.752 95.135 626.448 89.919 629.088L88.975 627.744C91.423 626.512 92.879 625.088 93.695 623.392L89.311 623.824L89.087 622.304L94.223 621.984C94.399 621.312 94.511 620.608 94.575 619.856H89.823V618.448H96.303ZM98.255 617.024H100.031V622.608H102.127V624.064H100.031V631.28H98.255V617.024ZM113.215 617.056H114.895V631.296H113.215V617.056ZM108.831 622.336H110.415V617.36H112.063V630.592H110.415V623.872H108.831V622.336ZM102.719 618.72H109.215V620.144H108.207V626.304L109.455 626.176L109.583 627.44C107.359 627.904 104.447 627.952 102.655 627.952L102.463 626.512H103.711V620.144H102.719V618.72ZM105.295 626.464L106.607 626.416V620.144H105.295V626.464Z" fill="#00B4E6"/>
<rect x="140.5" y="601" width="94" height="46" rx="23" fill="#F1F3F6"/>
<path d="M177.804 617.84H179.004V619.2C179.004 621.248 180.508 623.072 182.54 623.808L181.948 624.752C180.348 624.144 179.052 622.928 178.444 621.36C177.836 623.04 176.54 624.368 174.892 625.008L174.268 624.048C176.348 623.28 177.804 621.328 177.804 619.2V617.84ZM176.252 626.32H185.58V631.168H184.38V627.312H176.252V626.32ZM184.38 617.168H185.58V625.6H184.38V617.168ZM197.468 617.168H198.684V620.848H200.748V621.856H198.684V625.52H197.468V617.168ZM194.22 625.808C197.052 625.808 198.812 626.8 198.812 628.48C198.812 630.16 197.052 631.136 194.22 631.136C191.388 631.136 189.628 630.16 189.628 628.48C189.628 626.8 191.388 625.808 194.22 625.808ZM194.22 626.784C192.108 626.784 190.796 627.408 190.796 628.48C190.796 629.52 192.108 630.16 194.22 630.16C196.316 630.16 197.628 629.52 197.628 628.48C197.628 627.408 196.316 626.784 194.22 626.784ZM188.46 618.24H194.636V619.248H189.66V623.376C192.476 623.376 194.076 623.296 195.948 622.912L196.092 623.888C194.14 624.272 192.46 624.368 189.548 624.368H188.46V618.24Z" fill="#272A2F"/>
<rect x="242.5" y="601" width="94" height="46" rx="23" fill="#F1F3F6"/>
<path d="M283.34 618.624C283.34 622.656 281.948 626.368 276.956 628.848L276.3 627.92C278.908 626.624 280.476 624.992 281.324 623.104L276.556 623.568L276.364 622.496L281.708 622.128C281.948 621.328 282.092 620.496 282.14 619.616H277.068V618.624H283.34ZM285.676 617.152H286.892V622.88H289.148V623.888H286.892V631.168H285.676V617.152ZM300.572 617.168H301.724V631.168H300.572V617.168ZM295.9 622.528H297.868V617.52H299.004V630.416H297.868V623.584H295.9V622.528ZM289.932 618.96H296.332V619.952H295.132V626.496C295.66 626.448 296.172 626.4 296.636 626.336L296.732 627.232C294.524 627.632 291.612 627.696 289.788 627.696L289.644 626.672L291.116 626.656V619.952H289.932V618.96ZM292.22 626.64L294.028 626.56V619.952H292.22V626.64Z" fill="#272A2F"/>
</g>
<path d="M32 732C32 727.582 35.5817 724 40 724H335C339.418 724 343 727.582 343 732V767C343 771.418 339.418 775 335 775H40C35.5817 775 32 771.418 32 767V732Z" fill="#46DCFA"/>
<path d="M157.112 753.894H160.442V749.808C159.182 749.07 158.426 747.936 158.426 746.514C158.426 743.94 160.928 742.284 164.348 742.284C167.786 742.284 170.27 743.94 170.27 746.514C170.27 747.936 169.514 749.07 168.272 749.808V753.894H171.62V755.496H157.112V753.894ZM164.348 743.832C161.99 743.832 160.37 744.858 160.37 746.514C160.37 748.188 161.99 749.196 164.348 749.196C166.706 749.196 168.326 748.188 168.326 746.514C168.326 744.858 166.706 743.832 164.348 743.832ZM162.422 753.894H166.292V750.546C165.698 750.672 165.032 750.744 164.348 750.744C163.664 750.744 163.016 750.672 162.422 750.546V753.894ZM172.898 743.184H176.228V741.366H178.19V743.184H181.484V744.75H178.19V744.822C178.19 746.622 179.522 748.332 182.024 749.016L181.124 750.546C179.306 750.042 177.974 748.98 177.254 747.594C176.552 749.142 175.22 750.366 173.348 750.942L172.412 749.394C174.914 748.656 176.228 746.766 176.228 744.822V744.75H172.898V743.184ZM181.034 745.812H183.806V741.438H185.786V751.104H183.806V747.414H181.034V745.812ZM180.422 751.446C183.77 751.446 185.84 752.544 185.84 754.434C185.84 756.324 183.77 757.44 180.422 757.44C177.056 757.44 174.986 756.324 174.986 754.434C174.986 752.544 177.056 751.446 180.422 751.446ZM180.422 752.958C178.19 752.958 176.966 753.48 176.966 754.434C176.966 755.406 178.19 755.928 180.422 755.928C182.636 755.928 183.878 755.406 183.878 754.434C183.878 753.48 182.636 752.958 180.422 752.958ZM198.351 741.438H200.331V747.81H202.761V749.448H200.331V757.458H198.351V741.438ZM187.767 743.868H191.493V741.672H193.491V743.868H197.163V745.452H187.767V743.868ZM192.501 746.532C194.823 746.532 196.515 748.08 196.515 750.294C196.515 752.508 194.823 754.056 192.501 754.056C190.215 754.056 188.505 752.508 188.505 750.294C188.505 748.08 190.215 746.532 192.501 746.532ZM192.501 748.134C191.277 748.134 190.413 748.98 190.413 750.294C190.413 751.608 191.277 752.436 192.501 752.436C193.725 752.436 194.607 751.608 194.607 750.294C194.607 748.98 193.725 748.134 192.501 748.134ZM214.497 741.42H216.477V757.44H214.497V741.42ZM211.743 743.094C211.743 747.9 209.925 751.932 204.345 754.632L203.319 753.066C207.477 751.068 209.367 748.35 209.709 744.696H204.111V743.094H211.743Z" fill="#384252"/>
<defs>
<filter id="filter0_d_384_1446" x="13" y="219" width="351" height="479" filterUnits="userSpaceOnUse" color-interpolation-filters="sRGB">
<feFlood flood-opacity="0" result="BackgroundImageFix"/>
<feColorMatrix in="SourceAlpha" type="matrix" values="0 0 0 0 0 0 0 0 0 0 0 0 0 0 0 0 0 0 127 0" result="hardAlpha"/>
<feOffset dx="1" dy="2"/>
<feGaussianBlur stdDeviation="2"/>
<feComposite in2="hardAlpha" operator="out"/>
<feColorMatrix type="matrix" values="0 0 0 0 0 0 0 0 0 0 0 0 0 0 0 0 0 0 0.15 0"/>
<feBlend mode="normal" in2="BackgroundImageFix" result="effect1_dropShadow_384_1446"/>
<feBlend mode="normal" in="SourceGraphic" in2="effect1_dropShadow_384_1446" result="shape"/>
</filter>
<linearGradient id="paint0_linear_384_1446" x1="187.5" y1="0" x2="187.5" y2="57" gradientUnits="userSpaceOnUse">
<stop stop-color="white" stop-opacity="0"/>
<stop offset="1" stop-color="#46DCFA" stop-opacity="0.5"/>
</linearGradient>
<linearGradient id="paint1_linear_384_1446" x1="200.87" y1="28" x2="194.665" y2="9.69882" gradientUnits="userSpaceOnUse">
<stop stop-color="#00ADE3"/>
<stop offset="1" stop-color="#0052C2"/>
</linearGradient>
<linearGradient id="paint2_linear_384_1446" x1="200.87" y1="39" x2="194.665" y2="20.6988" gradientUnits="userSpaceOnUse">
<stop stop-color="#00ADE3"/>
<stop offset="1" stop-color="#0052C2"/>
</linearGradient>
</defs>
</svg>
